<svg width="12" height="12" viewBox="0 0 12 12" fill="none" xmlns="http://www.w3.org/2000/svg">
<circle cx="6" cy="6" r="6" fill="#49BFED"/>
<path d="M7.74999 3L7.38882 4.28166L6.66666 4.65883L7.38882 5.03583L7.74999 6.16666L8.11115 5.03566L8.83332 4.65866L8.11115 4.28183L7.74999 3ZM5.33333 4L5.16666 4.66666L4.66666 4.83333L5.16666 4.99999L5.33333 5.66666L5.49999 4.99999L5.99999 4.83333L5.49999 4.66666L5.33333 4ZM3 6.99999C3 6.95579 3.01756 6.91339 3.04882 6.88214C3.08007 6.85088 3.12246 6.83332 3.16667 6.83332H3.66666C3.71087 6.83332 3.75326 6.85088 3.78452 6.88214C3.81577 6.91339 3.83333 6.95579 3.83333 6.99999V8.83265C3.83333 8.87685 3.81577 8.91925 3.78452 8.9505C3.75326 8.98176 3.71087 8.99932 3.66666 8.99932H3.16667C3.12246 8.99932 3.08007 8.98176 3.04882 8.9505C3.01756 8.91925 3 8.87685 3 8.83265V7.00016V6.99999ZM4.95083 6.86482C5.10616 6.79399 5.48583 6.86482 5.48583 6.86482L6.59016 7.11249C6.59016 7.11249 6.86632 7.20099 7.12516 7.20099C7.38399 7.20099 7.22916 7.55532 7.05599 7.67899C6.88299 7.80265 6.75699 7.79599 6.75699 7.79599L5.86533 7.78515C5.86533 7.78515 6.64199 7.92682 6.93532 7.94449C7.08382 7.95349 7.33866 7.84882 7.62365 7.73199C7.90115 7.61799 8.20699 7.49249 8.47099 7.44882C9.00598 7.36049 9.09232 7.83832 8.91965 8.01532C8.74715 8.19232 7.36665 8.86482 7.12516 8.95332C6.93582 9.02265 6.70699 8.99965 6.44882 8.97365C6.37732 8.96648 6.30349 8.95898 6.22782 8.95332C5.92616 8.93048 5.69583 8.85715 5.46783 8.78465C5.22316 8.70698 4.98133 8.63015 4.6575 8.61698C4.54883 8.61265 4.2945 8.62615 4.16666 8.63365V7.15666C4.38766 7.07799 4.83516 6.91732 4.95083 6.86466V6.86482Z" fill="#EEEEEE"/>
</svg>
