<svg width="25" height="24" viewBox="0 0 25 24" fill="none" xmlns="http://www.w3.org/2000/svg">
<path d="M19.0357 3.57143L19.7857 5.20238L21.4167 5.95238L19.7857 6.70238L19.0357 8.33333L18.2857 6.70238L16.6548 5.95238L18.2857 5.20238L19.0357 3.57143ZM11.9048 4.91667V2.38095H14.2857C14.9643 2.38095 15.5952 2.58333 16.131 2.91667L17.8333 1.21429C16.8167 0.430048 15.5697 0.00321579 14.2857 0H7.7381V2.38095H9.52381V4.92857C8.49488 5.14352 7.5411 5.62674 6.75917 6.32922C5.97724 7.0317 5.39498 7.92847 5.07143 8.92857H9.80952L16.6667 11.4881V10.75C16.6669 9.37779 16.1931 8.04763 15.3254 6.98464C14.4576 5.92164 13.2492 5.19111 11.9048 4.91667ZM0 23.8095H4.7619V10.7143H0V23.8095ZM22.619 17.8571H14.2857L11.7976 16.9881L12.1905 15.869L14.2857 16.6667H17.6429C18.4167 16.6667 19.0476 16.0357 19.0476 15.2619C19.0476 14.6786 18.6786 14.1548 18.131 13.9405L9.4881 10.7143H7.14286V21.4524L15.4762 23.8095L25 20.2381C24.9881 18.9286 23.9405 17.8571 22.619 17.8571ZM22.619 14.2857C23.9286 14.2857 25 13.2143 25 11.9048C25 10.5952 22.619 7.14286 22.619 7.14286C22.619 7.14286 20.2381 10.5952 20.2381 11.9048C20.2381 13.2143 21.3095 14.2857 22.619 14.2857Z" fill="#262626"/>
</svg>
